<svg width="30" height="30" fill="none" xmlns="http://www.w3.org/2000/svg"><path d="M5.961 30c1.308 0 3.144-.473 5.894-2.01 3.345-1.874 5.931-3.605 9.258-6.922 3.207-3.204 4.767-5.279 6.951-9.253 2.468-4.486 2.047-6.838 1.577-7.843-.56-1.202-1.387-1.92-2.455-2.633A11.81 11.81 0 0025.268.32L25.083.24c-.331-.15-.834-.375-1.47-.134-.425.16-.804.485-1.397 1.071-1.217 1.2-2.88 3.873-3.494 5.185-.412.885-.684 1.469-.685 2.124 0 .767.386 1.358.854 1.996.088.12.175.235.26.346.509.67.62.863.547 1.208-.15.695-1.263 2.762-3.094 4.588-1.83 1.826-3.838 2.87-4.535 3.018-.36.077-.558-.04-1.25-.567-.099-.076-.2-.154-.307-.232-.714-.531-1.278-.907-2.027-.907h-.004c-.651 0-1.21.283-2.134.749-1.205.608-3.959 2.249-5.166 3.467-.588.592-.915.97-1.075 1.394-.242.638-.014 1.138.134 1.473.024.056.052.116.08.184.283.668.625 1.309 1.025 1.914.712 1.065 1.433 1.889 2.637 2.45.619.292 1.295.44 1.98.433z" fill="#1A2E3B"/></svg>