<svg width="22" height="22" viewBox="0 0 22 22" fill="none" xmlns="http://www.w3.org/2000/svg">
<path d="M4.37091 21.9998C5.3295 21.9998 6.67603 21.6531 8.69239 20.5266C11.1443 19.1516 13.0409 17.8821 15.4796 15.4498C17.8309 13.1 18.9751 11.5787 20.5765 8.6646C22.3856 5.37439 22.0772 3.64972 21.7325 2.91262C21.3219 2.03162 20.7159 1.5047 19.9327 0.981699C19.4878 0.690213 19.017 0.440344 18.5262 0.235261C18.4771 0.214145 18.4314 0.194011 18.3907 0.175841C18.1476 0.0663309 17.7793 -0.0991622 17.3128 0.0776257C17.0014 0.194502 16.7235 0.433657 16.2884 0.863349C15.3961 1.74336 14.1767 3.70325 13.7269 4.66576C13.4249 5.31447 13.225 5.74269 13.2245 6.22297C13.2245 6.78525 13.5074 7.21887 13.8507 7.68687C13.915 7.77477 13.9788 7.85875 14.0407 7.94026C14.4144 8.43134 14.4964 8.57326 14.4424 8.82666C14.3329 9.33591 13.5162 10.8519 12.1741 12.191C10.832 13.5302 9.35977 14.2953 8.84856 14.4043C8.58436 14.4608 8.43949 14.3753 7.9327 13.9884C7.86002 13.9329 7.78537 13.8754 7.70729 13.818C7.1838 13.4285 6.77032 13.1531 6.22129 13.1531H6.21835C5.74053 13.1531 5.33146 13.3603 4.65377 13.7021C3.76984 14.148 1.75102 15.3516 0.865602 16.2449C0.434928 16.679 0.194791 16.956 0.0774246 17.2668C-0.0993638 17.7348 0.0671115 18.1016 0.17564 18.3472C0.193809 18.3879 0.213943 18.4326 0.235059 18.4822C0.441764 18.9721 0.693111 19.4419 0.985918 19.8857C1.50793 20.6665 2.03682 21.2711 2.91978 21.6821C3.37318 21.8965 3.86938 22.0052 4.37091 21.9998Z" fill="#1A2E3B"/>
</svg>
