<svg width="76" height="31" viewBox="0 0 76 31" fill="none" xmlns="http://www.w3.org/2000/svg">
<path d="M7.68427 18.9261C7.67532 19.0066 7.65742 19.0872 7.63058 19.1677C7.61268 19.2393 7.55452 19.2975 7.45608 19.3422C7.42028 19.3601 7.2413 19.4272 6.91914 19.5436C6.60592 19.6509 6.239 19.7807 5.8184 19.9328C5.40674 20.076 4.99509 20.2192 4.58344 20.3624C4.18073 20.5145 3.87199 20.6309 3.65721 20.7114C3.54982 20.7561 3.41559 20.8009 3.25451 20.8456C3.10238 20.8993 2.95024 20.9262 2.7981 20.9262C2.67282 20.9262 2.56096 20.8949 2.46252 20.8322C2.37303 20.7696 2.32829 20.6532 2.32829 20.4832C2.32829 20.0894 2.33724 19.7315 2.35513 19.4093C2.38198 19.0782 2.4133 18.7337 2.4491 18.3757C2.48489 18.0177 2.52068 17.624 2.55648 17.1944C2.60123 16.7559 2.6415 16.2369 2.67729 15.6373C2.72204 14.8498 2.77126 14.0936 2.82495 13.3687C2.87865 12.6349 2.93234 11.8742 2.98604 11.0867L3.17397 8.7913C3.20081 8.41544 3.22766 8.0351 3.25451 7.6503C3.28136 7.25654 3.3082 6.85383 3.33504 6.44218L3.4827 4.80451C3.4827 4.78661 3.45586 4.77766 3.40217 4.77766C3.33058 4.77766 3.20976 4.79556 3.03973 4.83135C2.86969 4.8582 2.66834 4.894 2.43567 4.93874C2.20299 4.98349 1.94347 5.03271 1.6571 5.0864C1.37968 5.13115 1.09331 5.17589 0.797997 5.22064C0.726404 5.22064 0.654814 5.20721 0.583221 5.18036C0.520578 5.14457 0.489258 5.1043 0.489258 5.05955C0.489258 5.02376 0.498208 4.99691 0.516106 4.97901L2.69072 1.18015C3.18292 1.07276 3.71091 0.965373 4.2747 0.857985C4.84743 0.741647 5.46044 0.638733 6.11372 0.549243C6.767 0.459753 7.46055 0.388161 8.19437 0.334467C8.92819 0.271824 9.70676 0.240501 10.5301 0.240501C11.4608 0.258399 12.3646 0.352365 13.2416 0.522396C14.1276 0.683479 14.9106 0.960898 15.5907 1.35466C16.2798 1.73946 16.8302 2.26746 17.2418 2.93863C17.6624 3.60086 17.8727 4.44207 17.8727 5.46226C17.8727 6.02605 17.7743 6.54509 17.5774 7.01939C17.3895 7.49369 17.1434 7.92324 16.8391 8.30805C16.5438 8.68391 16.2172 9.0195 15.8592 9.31482C15.5013 9.60118 15.1567 9.84728 14.8256 10.0531C14.5034 10.2589 14.2171 10.4245 13.9665 10.5498C13.7159 10.6661 13.5459 10.7422 13.4564 10.778C13.4564 10.7959 13.4609 10.8183 13.4698 10.8451C13.4877 10.8719 13.519 10.9256 13.5638 11.0062C13.6085 11.0778 13.6712 11.1852 13.7517 11.3283C13.8412 11.4626 13.9531 11.6505 14.0873 11.8921C14.2305 12.1069 14.4005 12.3933 14.5974 12.7512C14.7943 13.1092 15.0269 13.5343 15.2954 14.0265C15.5728 14.5097 15.8905 15.0511 16.2485 15.6507C16.6065 16.2503 17.0181 16.8946 17.4835 17.5837C17.6356 17.718 17.8101 17.803 18.007 17.8388C18.2039 17.8656 18.3873 17.8835 18.5573 17.8925C18.7274 17.8925 18.8706 17.9014 18.9869 17.9193C19.1032 17.9283 19.1614 17.9819 19.1614 18.0804C19.1614 18.152 19.0853 18.237 18.9332 18.3354C18.79 18.4249 18.62 18.5189 18.4231 18.6173C18.2262 18.7158 18.0249 18.8097 17.8191 18.8992C17.6222 18.9887 17.47 19.0603 17.3626 19.114C17.1479 19.2214 16.9241 19.3243 16.6915 19.4227C16.4588 19.5212 16.2082 19.633 15.9398 19.7583C15.6713 19.8747 15.3715 20.0134 15.0404 20.1745C14.7182 20.3355 14.3513 20.5279 13.9396 20.7517C13.8323 20.8143 13.7293 20.8546 13.6309 20.8725C13.5414 20.8993 13.4564 20.9128 13.3759 20.9128C13.2148 20.9128 13.0761 20.8725 12.9597 20.7919C12.8434 20.7203 12.7449 20.6309 12.6644 20.5235C12.5839 20.4161 12.5167 20.3042 12.4631 20.1879C12.4183 20.0805 12.378 19.991 12.3422 19.9194L8.34203 11.4894L7.68427 18.9261ZM8.50311 9.83833C8.95951 9.83833 9.43381 9.722 9.926 9.48932C10.4182 9.25665 10.8657 8.95685 11.2684 8.58994C11.6711 8.22303 12.0022 7.8069 12.2617 7.34155C12.5212 6.87621 12.651 6.40638 12.651 5.93208C12.651 4.63447 11.8724 3.98567 10.3153 3.98567C10.02 3.98567 9.77387 4.00804 9.57699 4.05279C9.38011 4.08858 9.20113 4.11543 9.04005 4.13333L8.50311 9.83833Z" fill="#E61A23"/>
<path d="M22.5613 19.02C22.6777 18.7874 22.7985 18.5278 22.9237 18.2415C23.049 17.9462 23.1654 17.6285 23.2728 17.2884L23.6352 16.4024C23.4741 16.1608 23.3086 15.9013 23.1385 15.6239C22.9774 15.3375 22.8298 15.0467 22.6955 14.7513C22.5613 14.456 22.4495 14.1607 22.36 13.8654C22.2794 13.5701 22.2391 13.2837 22.2391 13.0063C22.2391 12.9884 22.3063 12.975 22.4405 12.966C22.5837 12.9481 22.7582 12.9347 22.964 12.9257C23.1788 12.9168 23.407 12.9123 23.6486 12.9123C23.8992 12.9034 24.1274 12.8989 24.3332 12.8989C24.548 12.89 24.7225 12.8855 24.8567 12.8855C24.9999 12.8765 25.0715 12.8721 25.0715 12.8721C25.2773 12.3351 25.4787 11.825 25.6756 11.3418C25.8725 10.8585 26.0693 10.3708 26.2662 9.8786C26.4631 9.38641 26.66 8.88526 26.8568 8.37517C27.0537 7.85612 27.2506 7.30128 27.4475 6.71065C27.8233 5.60097 28.1902 4.62552 28.5482 3.78432C28.9062 2.94311 29.2418 2.16007 29.555 1.4352C29.5908 1.34571 29.6489 1.26517 29.7295 1.19357C29.819 1.11303 29.9129 1.04591 30.0114 0.99222C30.1098 0.938526 30.2038 0.893781 30.2933 0.857985C30.3917 0.822188 30.4678 0.795342 30.5215 0.777444C30.5573 0.768495 30.6915 0.728224 30.9242 0.656631C31.1658 0.585039 31.4388 0.508973 31.743 0.428432C32.0473 0.34789 32.3471 0.276298 32.6424 0.213655C32.9467 0.151011 33.1883 0.11969 33.3673 0.11969H33.6089C33.7521 0.11969 33.8863 0.155486 34.0116 0.227078C34.1458 0.289722 34.2353 0.419482 34.2801 0.616361C34.7096 1.71709 35.166 2.92074 35.6493 4.22729C36.1415 5.5249 36.6202 6.95675 37.0856 8.52283C37.3362 9.36403 37.5823 10.1605 37.8239 10.9122C38.0655 11.6639 38.3071 12.3978 38.5487 13.1137C38.7904 13.8296 39.032 14.5455 39.2736 15.2614C39.5242 15.9774 39.7792 16.7157 40.0388 17.4763C40.1193 17.7985 40.1998 18.0535 40.2804 18.2415C40.3699 18.4294 40.4504 18.5771 40.522 18.6844C40.5936 18.7918 40.6518 18.8724 40.6965 18.9261C40.7413 18.9708 40.7636 19.02 40.7636 19.0737C40.7636 19.1274 40.6786 19.1811 40.5086 19.2348L37.6225 20.1745C37.4077 20.255 37.1885 20.3355 36.9648 20.4161C36.741 20.4966 36.5307 20.5682 36.3339 20.6309C36.137 20.6935 35.9625 20.7427 35.8103 20.7785C35.6672 20.8233 35.5643 20.8456 35.5016 20.8456H35.4211C35.2958 20.8456 35.2063 20.8054 35.1526 20.7248C35.0989 20.6532 35.0631 20.5816 35.0452 20.51C34.9557 20.2147 34.8662 19.9507 34.7767 19.7181C34.6872 19.4764 34.5978 19.2393 34.5083 19.0066C34.4277 18.765 34.3427 18.5099 34.2532 18.2415C34.1727 17.973 34.0921 17.6553 34.0116 17.2884C33.9937 17.2437 33.9445 17.2079 33.8639 17.181C33.7834 17.1452 33.6849 17.1184 33.5686 17.1005C33.4612 17.0826 33.3449 17.0736 33.2196 17.0736C33.0943 17.0647 32.978 17.0602 32.8706 17.0602C32.5305 17.0602 32.2531 17.0647 32.0383 17.0736C31.8325 17.0736 31.6491 17.0781 31.488 17.087C31.3269 17.087 31.1703 17.0915 31.0181 17.1005C30.875 17.1005 30.696 17.1005 30.4812 17.1005C30.2217 17.1005 29.9532 17.1005 29.6758 17.1005C29.4073 17.0915 29.1612 17.0826 28.9375 17.0736L28.1724 17.0468C27.9397 17.6911 27.707 18.2952 27.4743 18.859C27.2417 19.4227 26.9911 20.0044 26.7226 20.604C26.7047 20.6756 26.66 20.7338 26.5884 20.7785C26.5257 20.8233 26.4586 20.8456 26.387 20.8456C26.3333 20.8456 26.302 20.8412 26.2931 20.8322C25.425 20.519 24.6957 20.2103 24.105 19.906C23.5144 19.6017 22.9998 19.3064 22.5613 19.02ZM31.6088 6.95227C31.394 7.74874 31.1792 8.47361 30.9644 9.12688C30.7586 9.77121 30.5662 10.344 30.3872 10.8451C30.2172 11.3462 30.0695 11.7713 29.9443 12.1203C29.819 12.4604 29.7295 12.7244 29.6758 12.9123V13.0331C29.6758 13.0868 29.6713 13.1226 29.6624 13.1405H32.884C32.7856 12.702 32.6782 12.259 32.5619 11.8116C32.4545 11.3641 32.3471 10.8943 32.2397 10.4021C32.1323 9.90992 32.0249 9.38193 31.9175 8.81814C31.8101 8.25436 31.7072 7.6324 31.6088 6.95227Z" fill="#E61A23"/>
<path d="M47.8013 2.32115C47.8103 2.16007 47.8192 2.02583 47.8282 1.91844C47.8371 1.81106 47.8505 1.72157 47.8684 1.64997C47.8953 1.57838 47.9311 1.52469 47.9758 1.48889C48.0206 1.45309 48.0922 1.42625 48.1906 1.40835L52.8352 0.294196C52.9515 0.2584 53.0678 0.240501 53.1842 0.240501C53.3095 0.240501 53.3945 0.280773 53.4392 0.361314C53.4929 0.441855 53.5198 0.593988 53.5198 0.817714L53.1171 5.12667L52.8754 7.70399C52.8217 8.30357 52.768 8.88526 52.7143 9.44905C52.6607 10.0128 52.607 10.5364 52.5533 11.0196C52.5085 11.4939 52.4683 11.919 52.4325 12.2948C52.3967 12.6617 52.3698 12.9571 52.3519 13.1808L52.3251 13.5701C52.2535 14.5903 52.0566 15.5657 51.7344 16.4964C51.4212 17.4271 51.0006 18.2504 50.4726 18.9663C49.9536 19.6733 49.3316 20.2371 48.6067 20.6577C47.8908 21.0783 47.0944 21.2886 46.2174 21.2886C45.7699 21.2886 45.4343 21.2797 45.2106 21.2618C44.9958 21.2439 44.8392 21.2125 44.7408 21.1678C44.6513 21.132 44.5931 21.0783 44.5663 21.0067C44.5484 20.9441 44.5126 20.8635 44.4589 20.7651L44.0159 17.5032C44.0159 17.4853 44.0427 17.4495 44.0964 17.3958C44.1591 17.3331 44.2083 17.2929 44.2441 17.275C44.5663 17.1497 44.884 17.0065 45.1972 16.8454C45.5104 16.6843 45.7878 16.4964 46.0294 16.2816C46.28 16.0579 46.4814 15.7984 46.6335 15.5031C46.7946 15.1988 46.8841 14.8453 46.902 14.4426L47.8013 2.32115Z" fill="#E61A23"/>
<path d="M57.4432 19.02C57.5595 18.7874 57.6803 18.5278 57.8056 18.2415C57.9309 17.9462 58.0473 17.6285 58.1546 17.2884L58.5171 16.4024C58.356 16.1608 58.1904 15.9013 58.0204 15.6239C57.8593 15.3375 57.7117 15.0467 57.5774 14.7513C57.4432 14.456 57.3313 14.1607 57.2418 13.8654C57.1613 13.5701 57.121 13.2837 57.121 13.0063C57.121 12.9884 57.1881 12.975 57.3224 12.966C57.4656 12.9481 57.6401 12.9347 57.8459 12.9257C58.0607 12.9168 58.2889 12.9123 58.5305 12.9123C58.7811 12.9034 59.0093 12.8989 59.2151 12.8989C59.4299 12.89 59.6044 12.8855 59.7386 12.8855C59.8818 12.8765 59.9534 12.8721 59.9534 12.8721C60.1592 12.3351 60.3606 11.825 60.5575 11.3418C60.7543 10.8585 60.9512 10.3708 61.1481 9.8786C61.345 9.38641 61.5419 8.88526 61.7387 8.37517C61.9356 7.85612 62.1325 7.30128 62.3294 6.71065C62.7052 5.60097 63.0721 4.62552 63.4301 3.78432C63.7881 2.94311 64.1236 2.16007 64.4369 1.4352C64.4726 1.34571 64.5308 1.26517 64.6114 1.19357C64.7009 1.11303 64.7948 1.04591 64.8933 0.99222C64.9917 0.938526 65.0857 0.893781 65.1751 0.857985C65.2736 0.822188 65.3497 0.795342 65.4034 0.777444C65.4392 0.768495 65.5734 0.728224 65.8061 0.656631C66.0477 0.585039 66.3206 0.508973 66.6249 0.428432C66.9292 0.34789 67.229 0.276298 67.5243 0.213655C67.8285 0.151011 68.0702 0.11969 68.2491 0.11969H68.4908C68.6339 0.11969 68.7682 0.155486 68.8935 0.227078C69.0277 0.289722 69.1172 0.419482 69.1619 0.616361C69.5915 1.71709 70.0479 2.92074 70.5312 4.22729C71.0233 5.5249 71.5021 6.95675 71.9675 8.52283C72.218 9.36403 72.4641 10.1605 72.7058 10.9122C72.9474 11.6639 73.189 12.3978 73.4306 13.1137C73.6722 13.8296 73.9139 14.5455 74.1555 15.2614C74.4061 15.9774 74.6611 16.7157 74.9206 17.4763C75.0012 17.7985 75.0817 18.0535 75.1623 18.2415C75.2518 18.4294 75.3323 18.5771 75.4039 18.6844C75.4755 18.7918 75.5336 18.8724 75.5784 18.9261C75.6231 18.9708 75.6455 19.02 75.6455 19.0737C75.6455 19.1274 75.5605 19.1811 75.3905 19.2348L72.5044 20.1745C72.2896 20.255 72.0704 20.3355 71.8467 20.4161C71.6229 20.4966 71.4126 20.5682 71.2158 20.6309C71.0189 20.6935 70.8444 20.7427 70.6922 20.7785C70.549 20.8233 70.4461 20.8456 70.3835 20.8456H70.3029C70.1777 20.8456 70.0882 20.8054 70.0345 20.7248C69.9808 20.6532 69.945 20.5816 69.9271 20.51C69.8376 20.2147 69.7481 19.9507 69.6586 19.7181C69.5691 19.4764 69.4796 19.2393 69.3901 19.0066C69.3096 18.765 69.2246 18.5099 69.1351 18.2415C69.0546 17.973 68.974 17.6553 68.8935 17.2884C68.8756 17.2437 68.8264 17.2079 68.7458 17.181C68.6653 17.1452 68.5668 17.1184 68.4505 17.1005C68.3431 17.0826 68.2268 17.0736 68.1015 17.0736C67.9762 17.0647 67.8599 17.0602 67.7525 17.0602C67.4124 17.0602 67.135 17.0647 66.9202 17.0736C66.7144 17.0736 66.5309 17.0781 66.3699 17.087C66.2088 17.087 66.0522 17.0915 65.9 17.1005C65.7568 17.1005 65.5779 17.1005 65.3631 17.1005C65.1036 17.1005 64.8351 17.1005 64.5577 17.1005C64.2892 17.0915 64.0431 17.0826 63.8194 17.0736L63.0542 17.0468C62.8216 17.6911 62.5889 18.2952 62.3562 18.859C62.1235 19.4227 61.873 20.0044 61.6045 20.604C61.5866 20.6756 61.5418 20.7338 61.4703 20.7785C61.4076 20.8233 61.3405 20.8456 61.2689 20.8456C61.2152 20.8456 61.1839 20.8412 61.1749 20.8322C60.3069 20.519 59.5775 20.2103 58.9869 19.906C58.3963 19.6017 57.8817 19.3064 57.4432 19.02ZM66.4907 6.95227C66.2759 7.74874 66.0611 8.47361 65.8463 9.12688C65.6405 9.77121 65.4481 10.344 65.2691 10.8451C65.0991 11.3462 64.9514 11.7713 64.8261 12.1203C64.7008 12.4604 64.6114 12.7244 64.5577 12.9123V13.0331C64.5577 13.0868 64.5532 13.1226 64.5442 13.1405H67.7659C67.6675 12.702 67.5601 12.259 67.4437 11.8116C67.3363 11.3641 67.2289 10.8943 67.1216 10.4021C67.0142 9.90992 66.9068 9.38193 66.7994 8.81814C66.692 8.25436 66.5891 7.6324 66.4907 6.95227Z" fill="#E61A23"/>
<path d="M21.0676 30.5395L21.0605 26.8941L19.2521 29.9319H18.9233L17.1149 26.9156V30.5395H16.4287V25.5361H17.0148L19.102 29.0528L21.1605 25.5361H21.7466L21.7538 30.5395H21.0676Z" fill="black"/>
<path d="M26.1145 30.5967C25.4474 30.5967 24.928 30.4061 24.5563 30.0249C24.1846 29.6437 23.9988 29.0957 23.9988 28.3809V25.5361H24.7135V28.3523C24.7135 29.4245 25.1829 29.9605 26.1216 29.9605C26.5791 29.9605 26.9293 29.8295 27.1724 29.5674C27.4154 29.3006 27.5369 28.8955 27.5369 28.3523V25.5361H28.2302V28.3809C28.2302 29.1004 28.0444 29.6508 27.6727 30.032C27.301 30.4085 26.7816 30.5967 26.1145 30.5967Z" fill="black"/>
<path d="M33.5651 29.2886H30.9061L30.3557 30.5395H29.6195L31.8854 25.5361H32.593L34.866 30.5395H34.1155L33.5651 29.2886ZM33.3149 28.7168L32.2356 26.2651L31.1563 28.7168H33.3149Z" fill="black"/>
<path d="M38.0141 28.8097V30.5395H37.3064V28.7955L35.3194 25.5361H36.0842L37.6853 28.1736L39.2935 25.5361H40.0012L38.0141 28.8097Z" fill="black"/>
<path d="M45.212 26.1579H43.4965V25.5361H47.6351V26.1579H45.9196V30.5395H45.212V26.1579Z" fill="black"/>
<path d="M53.5028 25.5361V30.5395H52.788V28.3094H49.9146V30.5395H49.1998V25.5361H49.9146V27.6875H52.788V25.5361H53.5028Z" fill="black"/>
<path d="M58.9746 29.2886H56.3156L55.7652 30.5395H55.029L57.2948 25.5361H58.0025L60.2755 30.5395H59.5249L58.9746 29.2886ZM58.7244 28.7168L57.6451 26.2651L56.5658 28.7168H58.7244Z" fill="black"/>
<path d="M61.8081 25.5361H62.5229V30.5395H61.8081V25.5361Z" fill="black"/>
</svg>
